<svg width="43" height="19" viewBox="0 0 43 19" fill="none" xmlns="http://www.w3.org/2000/svg">
<g id="Icon">
<path fill-rule="evenodd" clip-rule="evenodd" d="M13.9426 9.05465C13.2894 8.53165 13.1837 7.5766 13.7054 6.92314C14.2271 6.26968 15.1815 6.16317 15.8341 6.68557C16.4866 7.20798 16.593 8.16363 16.0707 8.81709C15.5484 9.47054 14.5952 9.57706 13.9426 9.05465ZM11.3394 12.3142C10.6862 11.7912 10.5805 10.8361 11.1022 10.1826C11.6239 9.52919 12.5783 9.42267 13.2309 9.94508C13.8835 10.4675 13.9898 11.4231 13.4681 12.0766C12.9464 12.7301 11.992 12.8366 11.3394 12.3142ZM8.62628 15.7113C7.9731 15.1883 7.86732 14.2332 8.38903 13.5798C8.91075 12.9263 9.86513 12.8198 10.5177 13.3428C11.1703 13.8658 11.2767 14.8209 10.755 15.4743C10.2333 16.1278 9.27887 16.2343 8.62628 15.7119V15.7113ZM18.3207 5.95193C17.7793 6.40851 16.9743 6.43664 16.4006 5.97586C15.8299 5.51928 15.6775 4.73298 15.9954 4.10585L11.0101 0.147407C10.7472 -0.0644285 10.6408 -0.04887 10.4484 0.200066L8.18764 3.04668C7.96652 3.31596 8.01732 3.44402 8.25517 3.65705C8.95335 4.26997 9.41039 5.11208 9.54421 6.03211C9.82031 7.8764 9.20597 9.40951 7.62708 10.4136C6.06254 11.4088 4.41433 11.4345 2.82828 10.3807C2.59879 10.2281 2.49362 10.2449 2.32927 10.4561L0.125886 13.2297C-0.0701298 13.4691 -0.0294924 13.593 0.194014 13.7683L3.08047 16.056C3.8717 16.6322 4.6982 17.09 5.55816 17.4263C5.59945 17.1758 5.70349 16.9399 5.86055 16.7406C6.38286 16.0865 7.33664 15.9806 7.98923 16.503C8.46732 16.8902 8.65497 17.5143 8.50557 18.0768C9.11214 18.1145 9.73246 18.1007 10.3701 18.0253L32.9084 15.366" fill="black"/>
<path fill-rule="evenodd" clip-rule="evenodd" d="M37.0522 8.72912C36.806 9.07978 36.3231 9.16416 35.9723 8.91762C35.8045 8.79892 35.6905 8.61851 35.6553 8.41587C35.62 8.21323 35.6663 8.00484 35.7841 7.8363C35.9026 7.6683 36.0828 7.55415 36.2851 7.51883C36.4875 7.4835 36.6956 7.52988 36.8639 7.6478C37.2141 7.89434 37.2984 8.37786 37.0522 8.72912ZM35.8259 10.4753C35.5797 10.8259 35.0968 10.9103 34.746 10.6638C34.3952 10.4172 34.3115 9.93371 34.5578 9.58244C34.6763 9.41445 34.8565 9.3003 35.0588 9.26497C35.2612 9.22965 35.4693 9.27602 35.6376 9.39395C35.9878 9.64049 36.0721 10.124 35.8259 10.4753ZM34.5996 12.2214C34.3534 12.5721 33.8705 12.6564 33.5197 12.4099C33.1689 12.1634 33.0853 11.6798 33.3315 11.3286C33.45 11.1606 33.6302 11.0464 33.8325 11.0111C34.0349 10.9758 34.243 11.0222 34.4113 11.1401C34.5791 11.2588 34.6931 11.4392 34.7284 11.6418C34.7637 11.8445 34.7174 12.0529 34.5996 12.2214ZM42.7629 8.97387L41.1219 7.72619C40.2853 7.13856 39.3745 6.7867 38.4052 6.68497C38.3846 6.79201 38.3419 6.89354 38.2797 6.98297C38.0335 7.33364 37.5506 7.41801 37.1998 7.17147C37.0408 7.05957 36.9398 6.8986 36.8968 6.72267L24.4247 8.45445L31.9701 13.4715C31.9783 13.3291 32.0256 13.1918 32.107 13.0747C32.2255 12.9067 32.4057 12.7926 32.608 12.7573C32.8104 12.7219 33.0185 12.7683 33.1868 12.8862C33.537 13.1328 33.6213 13.6163 33.3751 13.9675C33.2974 14.0771 33.197 14.1572 33.0847 14.2069L36.8663 16.7214C37.0157 16.8375 37.0755 16.8273 37.1807 16.6855L38.4141 15.0638C38.5354 14.9112 38.505 14.8394 38.3693 14.7227C37.9713 14.3875 37.7056 13.9212 37.6199 13.4074C37.4442 12.3782 37.7705 11.5117 38.6436 10.9312C39.5084 10.3568 40.4305 10.3227 41.3311 10.8953C41.4613 10.9779 41.5205 10.9671 41.6096 10.8475L42.809 9.26888C42.9165 9.13244 42.8914 9.06363 42.7647 8.96788" fill="black"/>
</g>
</svg>
